#!OML:ASF F:\VICON\USERDATA\INSTALL\rory3\rory3.ASF
:FULLY-SPECIFIED
:DEGREES
141
root -0.943288 16.1485 29.1221 -157.68 7.88489 -178.535
lowerback -2.69386 2.66515 -0.544637
upperback -5.46218 3.86228 -1.14188
thorax -4.07739 2.06806 -0.917242
lowerneck -17.8908 1.12914 0.172868
upperneck 31.6381 -1.02285 1.65123
head 13.7291 -0.89928 0.282379
rclavicle 1.72446e-014 1.11319e-014
rhumerus -53.5761 35.3012 -104.8
rradius 94.6287
rwrist -11.7495
rhand -19.5191 31.4853
rfingers 7.12502
rthumb 6.8041 1.61467
lclavicle 1.72446e-014 1.11319e-014
lhumerus -56.5557 -46.3923 105.154
lradius 91.4737
lwrist -15.4899
lhand -19.5 3.66931
lfingers 7.12502
lthumb 6.82251 33.5394
rfemur -48.9263 -3.02794 26.4471
rtibia 73.5741
rfoot -14.9018 -22.8303
rtoes 32.825
lfemur -42.3474 5.21835 -24.7897
ltibia 52.4498
lfoot -37.4804 14.3581
ltoes -16.9158
142
root -0.962346 16.1772 28.9963 -157.612 7.8735 -178.467
lowerback -2.83112 2.62008 -0.38637
upperback -5.46939 3.80694 -1.12453
thorax -3.99912 2.03645 -0.978944
lowerneck -18.1827 1.17628 0.17807
upperneck 31.7864 -0.896112 1.47937
head 13.8547 -0.863992 0.234087
rclavicle -2.63638e-014 1.41137e-014
rhumerus -53.0906 35.3051 -105.316
rradius 93.1978
rwrist -11.1615
rhand -19.8357 32.9667
rfingers 7.12502
rthumb 6.49838 3.08637
lclavicle -2.63638e-014 1.41137e-014
lhumerus -56.4138 -47.9031 106.489
lradius 89.6593
lwrist -15.7099
lhand -20.3827 3.6247
lfingers 7.12502
lthumb 5.9703 33.5206
rfemur -50.1879 -2.9095 26.5668
rtibia 73.3019
rfoot -13.8782 -21.0136
rtoes 27.8403
lfemur -41.5168 5.04719 -24.7978
ltibia 51.6956
lfoot -37.744 15.0591
ltoes -18.4102
143
root -0.987691 16.2004 28.8662 -157.605 7.66788 -178.378
lowerback -3.08323 2.50763 -0.0366458
upperback -5.33964 3.64965 -1.08761
thorax -3.70457 1.94309 -1.11445
lowerneck -18.4592 1.23657 0.145507
upperneck 31.7366 -0.692439 1.30919
head 13.8901 -0.788156 0.209468
rclavicle 3.65764e-014 1.23246e-014
rhumerus -52.1824 35.5248 -105.623
rradius 91.4282
rwrist -10.1604
rhand -20.4315 33.7545
rfingers 7.12502
rthumb 5.92325 3.85733
lclavicle 3.65764e-014 1.23246e-014
lhumerus -55.9052 -49.1595 107.404
lradius 87.6401
lwrist -16.397
lhand -21.462 3.36172
lfingers 7.12502
lthumb 4.9283 33.2844
rfemur -51.3589 -2.95162 26.8067
rtibia 72.7337
rfoot -16.2437 -17.2186
rtoes 21.4165
lfemur -40.5568 4.47739 -24.6888
ltibia 50.9896
lfoot -38.1533 15.6094
ltoes -18.8172
144
root -1.01196 16.2139 28.7513 -157.699 7.54915 -178.407
lowerback -2.55078 2.38494 0.118008
upperback -5.59261 3.49862 -1.08603
thorax -4.26296 1.8642 -1.23764
lowerneck -18.4634 1.31321 0.204127
upperneck 31.8646 -0.546562 1.08273
head 13.9447 -0.759017 0.131098
rclavicle 1.07592e-014 1.25234e-014
rhumerus -52.1003 35.4564 -106.387
rradius 89.6324
rwrist -8.75096
rhand -20.9086 34.2431
rfingers 7.12502
rthumb 5.46256 4.33346
lclavicle 1.07592e-014 1.25234e-014
lhumerus -56.3215 -50.2109 109.039
lradius 85.3869
lwrist -17.1087
lhand -22.6404 3.16291
lfingers 7.12502
lthumb 3.79035 33.1089
rfemur -52.5651 -2.82464 26.9077
rtibia 71.9799
rfoot -16.6109 -16.3591
rtoes 19.5978
lfemur -39.5725 3.69724 -24.6571
ltibia 50.3483
lfoot -38.8194 15.9838
ltoes -18.706
145
root -1.03064 16.2224 28.6473 -157.509 7.26322 -178.398
lowerback -2.36995 2.21737 0.2966
upperback -5.77938 3.29285 -1.0502
thorax -4.55777 1.75956 -1.31472
lowerneck -18.8567 1.3632 0.120098
upperneck 32.147 -0.431188 0.988102
head 14.1545 -0.736332 0.125198
rclavicle 5.02925e-014 -1.92821e-014
rhumerus -51.6391 35.2633 -106.793
rradius 87.5999
rwrist -6.82097
rhand -21.265 34.776
rfingers 7.12502
rthumb 5.11845 4.8578
lclavicle 5.02925e-014 -1.92821e-014
lhumerus -56.0395 -51.4356 110.253
lradius 82.9256
lwrist -17.9761
lhand -23.0062 3.29033
lfingers 7.12502
lthumb 3.43712 33.2424
rfemur -54.0405 -2.4835 27.0979
rtibia 71.0142
rfoot -17.485 -15.6279
rtoes 19.2269
lfemur -39.0588 2.69941 -24.4796
ltibia 49.7972
lfoot -39.3865 16.2597
ltoes -18.1451
146
root -1.04386 16.2341 28.5351 -157.339 6.66722 -178.172
lowerback -2.23332 1.93994 0.716251
upperback -5.97238 2.95251 -0.820567
thorax -4.83815 1.58218 -1.32025
lowerneck -18.9903 -0.780878 0.552834
upperneck 32.3122 0.705708 0.0651924
head 14.254 1.09445 0.235714
rclavicle 2.1096e-014 4.96962e-015
rhumerus -51.3872 35.2792 -107.145
rradius 85.4111
rwrist -4.8378
rhand -21.8069 35.1879
rfingers 7.12502
rthumb 4.59523 5.25778
lclavicle 2.1096e-014 4.96962e-015
lhumerus -55.3888 -52.0689 111.123
lradius 80.3343
lwrist -19.4829
lhand -22.4013 3.3144
lfingers 7.12502
lthumb 4.02124 33.2562
rfemur -55.1801 -2.2286 27.57
rtibia 69.7386
rfoot -18.4322 -15.164
rtoes 19.1058
lfemur -38.4897 1.84648 -24.0159
ltibia 49.2752
lfoot -39.8077 16.2597
ltoes -17.4656
147
root -1.04693 16.2487 28.4205 -157.369 7.07761 -177.609
lowerback -1.78457 2.01474 0.837821
upperback -5.67508 3.02073 -0.516776
thorax -4.78824 1.59926 -1.0855
lowerneck -20.9748 -0.573008 0.322371
upperneck 32.7962 0.996897 0.000938494
head 14.9198 1.13078 0.308779
rclavicle 3.40667e-014 4.77083e-015
rhumerus -49.7794 35.721 -106.629
rradius 82.8999
rwrist -2.80929
rhand -22.3704 35.7489
rfingers 7.12502
rthumb 4.05109 5.80771
lclavicle 3.40667e-014 4.77083e-015
lhumerus -52.9987 -52.7415 110.449
lradius 77.5882
lwrist -21.3904
lhand -21.333 2.70087
lfingers 7.12502
lthumb 5.05286 32.6206
rfemur -55.938 -1.09856 28.0047
rtibia 68.079
rfoot -18.6064 -15.3884
rtoes 17.2945
lfemur -37.5742 2.04656 -23.6057
ltibia 48.7412
lfoot -40.2959 16.6887
ltoes -17.7206
148
root -1.06219 16.2639 28.3013 -157.333 6.78354 -177.487
lowerback -1.68599 1.90269 1.19303
upperback -5.83998 2.89491 -0.502765
thorax -5.00555 1.52535 -1.27625
lowerneck -20.8045 -0.551714 0.33627
upperneck 32.8155 1.06153 -0.0409189
head 14.8908 1.16208 0.302044
rclavicle -8.94531e-015 0
rhumerus -49.1363 35.47 -106.761
rradius 80.1397
rwrist -0.511757
rhand -22.9524 35.9131
rfingers 7.12502
rthumb 3.48905 5.96191
lclavicle -8.94531e-015 0
lhumerus -52.5276 -53.5777 111.222
lradius 74.5914
lwrist -23.4903
lhand -20.7957 2.18423
lfingers 7.12502
lthumb 5.5716 32.091
rfemur -56.8447 -0.698324 28.154
rtibia 66.2095
rfoot -18.5669 -15.8256
rtoes 14.5518
lfemur -36.783 1.52047 -23.4252
ltibia 48.0929
lfoot -40.6639 16.9899
ltoes -17.7491
149
root -1.07256 16.2791 28.1756 -157.318 6.33792 -177.257
lowerback -1.53536 1.69265 1.60457
upperback -6.03973 2.65007 -0.38718
thorax -5.29845 1.39166 -1.3931
lowerneck -20.7275 -0.465588 0.388621
upperneck 32.9806 1.24953 -0.134541
head 14.9513 1.24869 0.29386
rclavicle 1.60767e-014 -2.78299e-015
rhumerus -48.4592 35.293 -106.822
rradius 77.2615
rwrist 1.42272
rhand -22.5942 35.8623
rfingers 7.12502
rthumb 3.83494 5.91704
lclavicle 1.60767e-014 -2.78299e-015
lhumerus -52.0911 -54.3253 111.985
lradius 71.4266
lwrist -25.4624
lhand -19.4547 1.56211
lfingers 7.12502
lthumb 6.86628 31.4308
rfemur -57.4987 -0.311572 28.3421
rtibia 64.1579
rfoot -19.2438 -15.5778
rtoes 14.6419
lfemur -35.869 0.906387 -23.0556
ltibia 47.3649
lfoot -40.9643 17.2372
ltoes -18.1897
150
root -1.07953 16.2972 28.046 -157.215 5.83079 -177.251
lowerback -1.47839 1.38102 1.71166
upperback -6.18833 2.26194 -0.23785
thorax -5.50398 1.20178 -1.29391
lowerneck -21.0134 -0.290206 0.461103
upperneck 33.1176 1.54086 -0.296807
head 15.0835 1.35361 0.27156
rclavicle -3.00165e-014 -7.7526e-015
rhumerus -47.5748 35.3822 -106.602
rradius 74.3132
rwrist 3.27721
rhand -22.0255 35.7663
rfingers 7.12502
rthumb 4.38415 5.83172
lclavicle -3.00165e-014 -7.7526e-015
lhumerus -51.2507 -55.0362 112.362
lradius 68.3343
lwrist -27.2345
lhand -16.2714 0.0898929
lfingers 7.12502
lthumb 9.93835 29.8353
rfemur -58.2147 0.0775635 28.188
rtibia 62.0045
rfoot -20.0532 -15.3326
rtoes 14.5492
lfemur -35.051 0.235457 -22.9048
ltibia 46.5861
lfoot -41.3221 17.2342
ltoes -17.6504
151
root -1.08416 16.3108 27.9201 -157.072 5.35004 -177.357
lowerback -1.36151 1.04048 1.59603
upperback -6.2976 1.8251 -0.0931681
thorax -5.70864 0.996489 -1.07201
lowerneck -21.6768 -0.136455 0.473523
upperneck 33.3062 1.74423 -0.339025
head 15.3256 1.41703 0.294893
rclavicle 2.33572e-015 6.36111e-015
rhumerus -46.5153 35.6784 -106.308
rradius 70.9109
rwrist 5.60787
rhand -22.8613 35.3083
rfingers 7.12502
rthumb 3.57708 5.35859
lclavicle 2.33572e-015 6.36111e-015
lhumerus -49.9099 -55.616 112.197
lradius 64.9792
lwrist -29.6484
lhand -23.4254 6.07027
lfingers 7.12502
lthumb 3.03227 36.0285
rfemur -58.9874 0.463557 27.863
rtibia 59.7662
rfoot -20.204 -15.5641
rtoes 12.0095
lfemur -34.3148 -0.293795 -22.8839
ltibia 45.7751
lfoot -41.7465 17.0407
ltoes -16.695
152
root -1.09002 16.3201 27.7979 -157.079 5.11347 -177.072
lowerback -1.1799 0.891524 1.77405
upperback -6.27225 1.63519 0.0807584
thorax -5.7923 0.894706 -0.98858
lowerneck -22.2303 0.0217512 0.695397
upperneck 33.3204 1.88878 -0.499821
head 15.4644 1.45903 0.216523
rclavicle -3.23025e-015 4.37326e-015
rhumerus -45.2015 35.7638 -105.767
rradius 67.3088
rwrist 7.85162
rhand -23.8049 35.2355
rfingers 7.12502
rthumb 2.66576 5.27237
lclavicle -3.23025e-015 4.37326e-015
lhumerus -48.1471 -56.3728 111.645
lradius 61.5601
lwrist -32.1275
lhand -21.5407 4.59681
lfingers 7.12502
lthumb 4.85231 34.5212
rfemur -59.4653 1.10104 27.834
rtibia 57.4192
rfoot -20.0799 -15.7152
rtoes 8.97915
lfemur -33.39 -0.602373 -22.5454
ltibia 44.9723
lfoot -42.0012 17.3399
ltoes -16.736
153
root -1.09016 16.3377 27.6668 -157.104 4.74554 -177.139
lowerback -1.12025 0.65575 1.68979
upperback -6.32335 1.3268 0.134584
thorax -5.89223 0.748292 -0.876382
lowerneck -22.48 0.214191 0.936439
upperneck 33.2437 2.05214 -0.558664
head 15.49 1.53399 0.179621
rclavicle 2.28602e-015 -8.94531e-015
rhumerus -44.0361 35.8337 -105.293
rradius 63.5536
rwrist 9.95755
rhand -24.2119 35.7059
rfingers 7.12502
rthumb 2.27276 5.73825
lclavicle 2.28602e-015 -8.94531e-015
lhumerus -47.095 -57.4899 111.667
lradius 58.5583
lwrist -33.0772
lhand -19.7561 5.53219
lfingers 7.12502
lthumb 6.57529 35.4101
rfemur -59.9438 1.62368 27.3625
rtibia 55.1011
rfoot -20.37 -15.7251
rtoes 7.97152
lfemur -32.3852 -1.04115 -22.5172
ltibia 44.0944
lfoot -42.1077 17.6515
ltoes -17.2383
154
root -1.09252 16.3599 27.5324 -156.998 3.97724 -177.158
lowerback -1.09807 0.300576 1.86347
upperback -6.46153 0.880819 0.235047
thorax -6.06429 0.52635 -0.854245
lowerneck -22.6957 0.338601 0.88565
upperneck 33.1874 2.16456 -0.416406
head 15.511 1.58212 0.269182
rclavicle -1.13556e-014 -6.75868e-015
rhumerus -42.9102 36.0836 -104.736
rradius 60.1037
rwrist 11.5199
rhand -24.4409 35.0857
rfingers 7.12502
rthumb 2.05154 5.11582
lclavicle -1.13556e-014 -6.75868e-015
lhumerus -45.0398 -58.1056 110.6
lradius 54.8714
lwrist -34.3059
lhand -19.6383 4.49058
lfingers 7.12502
lthumb 6.68899 34.3649
rfemur -60.4972 2.09184 26.871
rtibia 52.7586
rfoot -20.4261 -16.3058
rtoes 6.93958
lfemur -31.5803 -1.69181 -22.2945
ltibia 43.196
lfoot -41.9493 17.9696
ltoes -17.9405
